<svg class="border shadow-md" viewBox="0 0 1802.24 1013.76" style="width: 1802.24px; height: 1013.76px;" xmlns="http://www.w3.org/2000/svg" preserveAspectRatio="none"><rect class="bg" id="bg" x="0" y="0" width="1802.24" height="1013.76" fill="#0e0e0e"/><rect x="0" y="0" width="85.95298461538461" height="171.90596923076922" fill="#33b7d4" stroke="#33b7d4" stroke-width="3"/><rect x="0" y="277.2676923076923" width="85.95298461538461" height="214.88246153846154" fill="none" stroke="#33b7d4" stroke-width="3"/><rect x="0" y="623.8523076923077" width="85.95298461538461" height="214.88246153846154" fill="none" stroke="#33b7d4" stroke-width="3"/><rect x="0" y="970.4369230769231" width="85.95298461538461" height="85.95298461538461" fill="#33b7d4" stroke="#33b7d4" stroke-width="3"/><rect x="138.63384615384615" y="0" width="85.95298461538461" height="85.95298461538461" fill="none" stroke="#33b7d4" stroke-width="3"/><rect x="138.63384615384615" y="138.63384615384615" width="85.95298461538461" height="171.90596923076922" fill="#241E92" stroke="#241E92" stroke-width="3"/><rect x="138.63384615384615" y="415.90153846153845" width="85.95298461538461" height="214.88246153846154" fill="none" stroke="#a6fff2" stroke-width="3"/><rect x="138.63384615384615" y="762.4861538461539" width="85.95298461538461" height="214.88246153846154" fill="#7B6CF6" stroke="#7B6CF6" stroke-width="3"/><rect x="277.2676923076923" y="0" width="85.95298461538461" height="214.88246153846154" fill="#a6fff2" stroke="#a6fff2" stroke-width="3"/><rect x="277.2676923076923" y="346.5846153846154" width="85.95298461538461" height="171.90596923076922" fill="none" stroke="#a6fff2" stroke-width="3"/><rect x="277.2676923076923" y="623.8523076923077" width="85.95298461538461" height="85.95298461538461" fill="#a6fff2" stroke="#a6fff2" stroke-width="3"/><rect x="277.2676923076923" y="762.4861538461539" width="85.95298461538461" height="85.95298461538461" fill="none" stroke="#33b7d4" stroke-width="3"/><rect x="277.2676923076923" y="901.1200000000001" width="85.95298461538461" height="128.92947692307692" fill="none" stroke="#241E92" stroke-width="3"/><rect x="415.90153846153845" y="0" width="85.95298461538461" height="171.90596923076922" fill="#241E92" stroke="#241E92" stroke-width="3"/><rect x="415.90153846153845" y="277.2676923076923" width="85.95298461538461" height="214.88246153846154" fill="none" stroke="#33b7d4" stroke-width="3"/><rect x="415.90153846153845" y="623.8523076923077" width="85.95298461538461" height="214.88246153846154" fill="#7B6CF6" stroke="#7B6CF6" stroke-width="3"/><rect x="415.90153846153845" y="970.4369230769231" width="85.95298461538461" height="85.95298461538461" fill="none" stroke="#241E92" stroke-width="3"/><rect x="554.5353846153846" y="0" width="85.95298461538461" height="171.90596923076922" fill="none" stroke="#241E92" stroke-width="3"/><rect x="554.5353846153846" y="277.2676923076923" width="85.95298461538461" height="64.46473846153846" fill="none" stroke="#33b7d4" stroke-width="3"/><rect x="554.5353846153846" y="381.2430769230769" width="85.95298461538461" height="128.92947692307692" fill="#a6fff2" stroke="#a6fff2" stroke-width="3"/><rect x="554.5353846153846" y="589.1938461538462" width="85.95298461538461" height="128.92947692307692" fill="none" stroke="#7B6CF6" stroke-width="3"/><rect x="554.5353846153846" y="797.1446153846153" width="85.95298461538461" height="171.90596923076922" fill="#241E92" stroke="#241E92" stroke-width="3"/><rect x="693.1692307692308" y="0" width="85.95298461538461" height="64.46473846153846" fill="#33b7d4" stroke="#33b7d4" stroke-width="3"/><rect x="693.1692307692308" y="103.97538461538461" width="85.95298461538461" height="171.90596923076922" fill="#a6fff2" stroke="#a6fff2" stroke-width="3"/><rect x="693.1692307692308" y="381.2430769230769" width="85.95298461538461" height="64.46473846153846" fill="none" stroke="#a6fff2" stroke-width="3"/><rect x="693.1692307692308" y="485.2184615384615" width="85.95298461538461" height="128.92947692307692" fill="#7B6CF6" stroke="#7B6CF6" stroke-width="3"/><rect x="693.1692307692308" y="693.1692307692307" width="85.95298461538461" height="171.90596923076922" fill="#a6fff2" stroke="#a6fff2" stroke-width="3"/><rect x="693.1692307692308" y="970.436923076923" width="85.95298461538461" height="64.46473846153846" fill="#33b7d4" stroke="#33b7d4" stroke-width="3"/><rect x="831.8030769230769" y="0" width="85.95298461538461" height="85.95298461538461" fill="#241E92" stroke="#241E92" stroke-width="3"/><rect x="831.8030769230769" y="138.63384615384615" width="85.95298461538461" height="214.88246153846154" fill="none" stroke="#a6fff2" stroke-width="3"/><rect x="831.8030769230769" y="485.21846153846155" width="85.95298461538461" height="128.92947692307692" fill="none" stroke="#a6fff2" stroke-width="3"/><rect x="831.8030769230769" y="693.1692307692308" width="85.95298461538461" height="171.90596923076922" fill="#241E92" stroke="#241E92" stroke-width="3"/><rect x="831.8030769230769" y="970.4369230769231" width="85.95298461538461" height="128.92947692307692" fill="none" stroke="#241E92" stroke-width="3"/><rect x="970.436923076923" y="0" width="85.95298461538461" height="128.92947692307692" fill="#241E92" stroke="#241E92" stroke-width="3"/><rect x="970.436923076923" y="207.95076923076923" width="85.95298461538461" height="85.95298461538461" fill="none" stroke="#241E92" stroke-width="3"/><rect x="970.436923076923" y="346.5846153846154" width="85.95298461538461" height="214.88246153846154" fill="#7B6CF6" stroke="#7B6CF6" stroke-width="3"/><rect x="970.436923076923" y="693.1692307692308" width="85.95298461538461" height="128.92947692307692" fill="none" stroke="#a6fff2" stroke-width="3"/><rect x="970.436923076923" y="901.12" width="85.95298461538461" height="85.95298461538461" fill="#a6fff2" stroke="#a6fff2" stroke-width="3"/><rect x="1109.0707692307692" y="0" width="85.95298461538461" height="214.88246153846154" fill="#241E92" stroke="#241E92" stroke-width="3"/><rect x="1109.0707692307692" y="346.5846153846154" width="85.95298461538461" height="64.46473846153846" fill="#241E92" stroke="#241E92" stroke-width="3"/><rect x="1109.0707692307692" y="450.56" width="85.95298461538461" height="85.95298461538461" fill="none" stroke="#7B6CF6" stroke-width="3"/><rect x="1109.0707692307692" y="589.1938461538462" width="85.95298461538461" height="214.88246153846154" fill="none" stroke="#7B6CF6" stroke-width="3"/><rect x="1109.0707692307692" y="935.7784615384616" width="85.95298461538461" height="214.88246153846154" fill="none" stroke="#33b7d4" stroke-width="3"/><rect x="1247.7046153846154" y="0" width="85.95298461538461" height="64.46473846153846" fill="none" stroke="#a6fff2" stroke-width="3"/><rect x="1247.7046153846154" y="103.97538461538461" width="85.95298461538461" height="171.90596923076922" fill="#7B6CF6" stroke="#7B6CF6" stroke-width="3"/><rect x="1247.7046153846154" y="381.2430769230769" width="85.95298461538461" height="128.92947692307692" fill="none" stroke="#7B6CF6" stroke-width="3"/><rect x="1247.7046153846154" y="589.1938461538462" width="85.95298461538461" height="64.46473846153846" fill="none" stroke="#33b7d4" stroke-width="3"/><rect x="1247.7046153846154" y="693.1692307692308" width="85.95298461538461" height="85.95298461538461" fill="none" stroke="#33b7d4" stroke-width="3"/><rect x="1247.7046153846154" y="831.803076923077" width="85.95298461538461" height="128.92947692307692" fill="#7B6CF6" stroke="#7B6CF6" stroke-width="3"/><rect x="1386.3384615384616" y="0" width="85.95298461538461" height="171.90596923076922" fill="#a6fff2" stroke="#a6fff2" stroke-width="3"/><rect x="1386.3384615384616" y="277.2676923076923" width="85.95298461538461" height="128.92947692307692" fill="#241E92" stroke="#241E92" stroke-width="3"/><rect x="1386.3384615384616" y="485.2184615384615" width="85.95298461538461" height="64.46473846153846" fill="none" stroke="#a6fff2" stroke-width="3"/><rect x="1386.3384615384616" y="589.1938461538462" width="85.95298461538461" height="128.92947692307692" fill="#33b7d4" stroke="#33b7d4" stroke-width="3"/><rect x="1386.3384615384616" y="797.1446153846153" width="85.95298461538461" height="85.95298461538461" fill="none" stroke="#33b7d4" stroke-width="3"/><rect x="1386.3384615384616" y="935.7784615384614" width="85.95298461538461" height="64.46473846153846" fill="none" stroke="#241E92" stroke-width="3"/><rect x="1524.9723076923076" y="0" width="85.95298461538461" height="128.92947692307692" fill="none" stroke="#241E92" stroke-width="3"/><rect x="1524.9723076923076" y="207.95076923076923" width="85.95298461538461" height="171.90596923076922" fill="none" stroke="#7B6CF6" stroke-width="3"/><rect x="1524.9723076923076" y="485.2184615384615" width="85.95298461538461" height="85.95298461538461" fill="none" stroke="#7B6CF6" stroke-width="3"/><rect x="1524.9723076923076" y="623.8523076923077" width="85.95298461538461" height="171.90596923076922" fill="#241E92" stroke="#241E92" stroke-width="3"/><rect x="1524.9723076923076" y="901.12" width="85.95298461538461" height="85.95298461538461" fill="none" stroke="#33b7d4" stroke-width="3"/><rect x="1663.6061538461538" y="0" width="85.95298461538461" height="85.95298461538461" fill="none" stroke="#241E92" stroke-width="3"/><rect x="1663.6061538461538" y="138.63384615384615" width="85.95298461538461" height="128.92947692307692" fill="none" stroke="#33b7d4" stroke-width="3"/><rect x="1663.6061538461538" y="346.5846153846154" width="85.95298461538461" height="64.46473846153846" fill="none" stroke="#a6fff2" stroke-width="3"/><rect x="1663.6061538461538" y="450.56" width="85.95298461538461" height="171.90596923076922" fill="#a6fff2" stroke="#a6fff2" stroke-width="3"/><rect x="1663.6061538461538" y="727.8276923076924" width="85.95298461538461" height="64.46473846153846" fill="none" stroke="#241E92" stroke-width="3"/><rect x="1663.6061538461538" y="831.803076923077" width="85.95298461538461" height="171.90596923076922" fill="#a6fff2" stroke="#a6fff2" stroke-width="3"/><rect x="1802.24" y="0" width="85.95298461538461" height="85.95298461538461" fill="none" stroke="#7B6CF6" stroke-width="3"/><rect x="1802.24" y="138.63384615384615" width="85.95298461538461" height="85.95298461538461" fill="#a6fff2" stroke="#a6fff2" stroke-width="3"/><rect x="1802.24" y="277.2676923076923" width="85.95298461538461" height="128.92947692307692" fill="none" stroke="#33b7d4" stroke-width="3"/><rect x="1802.24" y="485.2184615384615" width="85.95298461538461" height="171.90596923076922" fill="none" stroke="#7B6CF6" stroke-width="3"/><rect x="1802.24" y="762.4861538461538" width="85.95298461538461" height="214.88246153846154" fill="#a6fff2" stroke="#a6fff2" stroke-width="3"/></svg>