<svg xmlns="http://www.w3.org/2000/svg" viewBox="0 0 512 512" style="enable-background:new 0 0 512 512" xml:space="preserve"><path d="m473.844 262.324-53.194-95.409a6.143 6.143 0 0 1-.777-2.987c0-.302-.188-31.803-1.021-38.729C410.284 53.824 349.536 0 277.549 0h-43.074C149.456 0 73.287 53.853 44.94 134.008c-16.572 46.857-15.235 97.955 3.763 143.881l21.013 50.795c14.643 35.398 16.949 75.189 6.494 112.043l-5.758 20.296c-3.45 12.16-1.059 24.92 6.559 35.007 7.618 10.087 19.238 15.876 31.878 15.884l138.7.087h.027c11.17 0 21.672-4.35 29.573-12.247 7.907-7.904 12.259-18.415 12.256-29.597l-.001-2.502a18.992 18.992 0 0 1 5.598-13.522 18.99 18.99 0 0 1 13.52-5.601h28.493c45.44 0 82.436-36.788 82.802-82.143.004-.096.005-.192.007-.287.001-.13.01-.259.01-.389v-38.501c0-.546.35-1.022.872-1.185l31.603-9.864c10.784-3.365 19.371-11.311 23.559-21.802 4.189-10.493 3.437-22.17-2.064-32.037zm-25.828 20.898c-.482 1.207-1.723 3.368-4.614 4.271l-31.603 9.864c-13.134 4.098-21.959 16.095-21.959 29.853v29.136c-23.321 10.874-50.297 9.584-72.515-3.559-7.134-4.222-16.346-1.861-20.57 5.278-4.223 7.138-1.859 16.348 5.278 20.569 16.954 10.031 35.902 15.08 54.907 15.08 8.989 0 17.989-1.137 26.798-3.406-8.86 16.746-26.457 28.188-46.685 28.188H308.56c-13.131 0-25.475 5.115-34.759 14.401-9.283 9.286-14.395 21.631-14.391 34.765l.001 2.502a11.72 11.72 0 0 1-3.458 8.348 11.722 11.722 0 0 1-8.341 3.454h-.008l-138.7-.087c-4.306-.002-6.818-2.478-7.932-3.952-1.114-1.476-2.807-4.568-1.632-8.71l5.758-20.296c12.291-43.325 9.58-90.104-7.634-131.72l-21.013-50.795c-16.16-39.065-17.297-82.53-3.2-122.387C97.366 75.841 162.157 30.032 234.475 30.032h43.074c56.798 0 104.726 42.452 111.483 98.744.423 3.673.808 27.266.808 35.151a36.262 36.262 0 0 0 4.577 17.61l53.195 95.411c1.476 2.645.888 5.067.404 6.274z" style="fill:#0ff"/><path d="m141.172 207.18 47.318-47.318c5.865-5.863 5.865-15.372.001-21.235-5.863-5.863-15.371-5.864-21.236 0l-57.401 57.4c-3.068 3.068-4.515 7.134-4.373 11.153-.143 4.019 1.304 8.085 4.373 11.153l57.401 57.401a14.97 14.97 0 0 0 10.617 4.399c3.842 0 7.686-1.466 10.617-4.399 5.864-5.864 5.864-15.372 0-21.236l-47.317-47.318zM365.395 195.925l-57.401-57.401c-5.863-5.864-15.372-5.864-21.236 0s-5.864 15.372 0 21.236l47.318 47.318-47.318 47.318c-5.864 5.864-5.864 15.372 0 21.236 2.932 2.932 6.775 4.399 10.617 4.399s7.686-1.466 10.617-4.399l57.401-57.401c3.068-3.068 4.516-7.134 4.373-11.153.145-4.018-1.303-8.083-4.371-11.153zM262.235 107.877c-8.005-2.166-16.252 2.565-18.418 10.569l-44.912 165.87c-2.168 8.006 2.565 16.252 10.569 18.419 1.314.355 2.635.526 3.934.526 6.614 0 12.674-4.405 14.485-11.095l44.912-165.869c2.168-8.005-2.564-16.252-10.57-18.42z" style="fill:#fff"/></svg>